<?xml version="1.0" encoding="UTF-8"?>
<svg xmlns="http://www.w3.org/2000/svg" xmlns:xlink="http://www.w3.org/1999/xlink" width="50pt" height="50pt" viewBox="0 0 50 50" version="1.1">
<g id="surface1">
<path style=" stroke:none;fill-rule:nonzero;fill:rgb(0%,0%,0%);fill-opacity:1;" d="M 22.5 24.167969 C 29.171875 24.167969 34.582031 18.757812 34.582031 12.082031 C 34.582031 5.410156 29.171875 0 22.5 0 C 15.828125 0 10.417969 5.410156 10.417969 12.082031 C 10.417969 18.757812 15.828125 24.167969 22.5 24.167969 Z M 28.222656 16.878906 C 27.675781 18.695312 25.320312 20.0625 22.496094 20.0625 C 19.675781 20.0625 17.320312 18.695312 16.769531 16.878906 Z M 47.917969 41.667969 L 47.917969 43.332031 C 47.917969 43.792969 47.542969 44.167969 47.082031 44.167969 L 42.082031 44.167969 L 42.082031 49.167969 C 42.082031 49.628906 41.710938 50 41.25 50 L 39.582031 50 C 39.125 50 38.75 49.628906 38.75 49.167969 L 38.75 44.167969 L 33.75 44.167969 C 33.289062 44.167969 32.917969 43.792969 32.917969 43.332031 L 32.917969 41.667969 C 32.917969 41.207031 33.289062 40.832031 33.75 40.832031 L 38.75 40.832031 L 38.75 35.832031 C 38.75 35.375 39.125 35 39.582031 35 L 41.25 35 C 41.710938 35 42.082031 35.375 42.082031 35.832031 L 42.082031 40.832031 L 47.082031 40.832031 C 47.542969 40.832031 47.917969 41.207031 47.917969 41.667969 Z M 31.25 41.667969 L 31.25 43.332031 C 31.25 43.777344 31.375 44.1875 31.578125 44.546875 C 29.0625 44.820312 26.0625 45 22.5 45 C 10.847656 45 5.148438 43.097656 3.058594 42.167969 C 2.519531 41.925781 2.082031 41.238281 2.082031 40.648438 L 2.082031 36.667969 C 2.082031 30.699219 6.628906 25.746094 12.425781 25.082031 C 12.601562 25.0625 12.863281 25.136719 13.007812 25.242188 C 15.679688 27.179688 18.953125 28.332031 22.5 28.332031 C 26.046875 28.332031 29.320312 27.179688 31.992188 25.242188 C 32.136719 25.136719 32.398438 25.0625 32.574219 25.082031 C 37.375 25.632812 41.304688 29.121094 42.519531 33.691406 C 42.148438 33.46875 41.714844 33.332031 41.25 33.332031 L 39.582031 33.332031 C 38.203125 33.332031 37.082031 34.453125 37.082031 35.832031 L 37.082031 39.167969 L 33.75 39.167969 C 32.371094 39.167969 31.25 40.289062 31.25 41.667969 Z M 31.25 41.667969 "/>
</g>
</svg>
